<svg xmlns="http://www.w3.org/2000/svg" xmlns:xlink="http://www.w3.org/1999/xlink" viewBox="0 0 1056.51 166.49"><defs><style>path{fill:url(#gradient);}</style><linearGradient id="gradient" x1="528.73" y1="138.58" x2="528.73" y2="17.63" gradientUnits="userSpaceOnUse"><stop offset="0" stop-color="#3864af"/><stop offset="0.44" stop-color="#b76db7"/><stop offset="1" stop-color="#e07ea5"/></linearGradient></defs><title>Constellation</title><path d="M90.58,111.2l12.27,8.91a37.25,37.25,0,0,1-6.22,7.47,38,38,0,0,1-8.31,5.88,44.44,44.44,0,0,1-9.92,3.78,42.9,42.9,0,0,1-10.66,1.34,44.63,44.63,0,0,1-16.8-3.1,39.52,39.52,0,0,1-22.18-21.76,41.42,41.42,0,0,1-3.19-16.3,42.27,42.27,0,0,1,3.11-16.29A40.14,40.14,0,0,1,37.24,68a38.76,38.76,0,0,1,13-8.66,42.93,42.93,0,0,1,16.47-3.1A40.18,40.18,0,0,1,86,61,41.39,41.39,0,0,1,100.33,73.4L88.57,83.31a35.94,35.94,0,0,0-8.82-8.23,22.7,22.7,0,0,0-13-3.69,25.61,25.61,0,0,0-10,1.93,23.35,23.35,0,0,0-8,5.46,26.06,26.06,0,0,0-5.29,8.31,27.35,27.35,0,0,0-1.93,10.33,28.2,28.2,0,0,0,1.93,10.67,22.93,22.93,0,0,0,5.46,8.15,25.82,25.82,0,0,0,8.32,5.29,27.76,27.76,0,0,0,10.5,1.94,24.09,24.09,0,0,0,13.44-3.62A37.4,37.4,0,0,0,90.58,111.2ZM193.15,81.13a44.48,44.48,0,0,1,0,32.68,40.73,40.73,0,0,1-8.57,13,38.9,38.9,0,0,1-12.94,8.65,43.93,43.93,0,0,1-32.42,0,38.9,38.9,0,0,1-12.94-8.65,40.54,40.54,0,0,1-8.56-13,44.48,44.48,0,0,1,0-32.68A40.14,40.14,0,0,1,126.28,68a38.92,38.92,0,0,1,12.94-8.66,43.93,43.93,0,0,1,32.42,0A38.92,38.92,0,0,1,184.58,68,40.33,40.33,0,0,1,193.15,81.13ZM180.3,97.42a28,28,0,0,0-1.85-10.16A25.67,25.67,0,0,0,173.32,79a23.5,23.5,0,0,0-7.81-5.55,26.28,26.28,0,0,0-20.16,0A23.6,23.6,0,0,0,137.54,79a25.64,25.64,0,0,0-5.12,8.31,28.85,28.85,0,0,0,0,20.33,25.8,25.8,0,0,0,5.12,8.32,23.58,23.58,0,0,0,7.81,5.54,26.16,26.16,0,0,0,20.16,0,23.48,23.48,0,0,0,7.81-5.54,25.82,25.82,0,0,0,5.13-8.32A28,28,0,0,0,180.3,97.42Zm183.29-.5a39.93,39.93,0,0,0-9.24-4.62q-5-1.76-9.75-2.94a62.09,62.09,0,0,1-10-3.36q-4.12-1.84-4.12-5.88a8.18,8.18,0,0,1,4.2-7.31,18.81,18.81,0,0,1,10.08-2.6,24.18,24.18,0,0,1,9.07,1.68,32.74,32.74,0,0,1,7.9,4.54L370,65a39.79,39.79,0,0,0-11.09-6.3,42.43,42.43,0,0,0-15.12-2.43,37.68,37.68,0,0,0-10.58,1.51,29.6,29.6,0,0,0-9.32,4.53A24,24,0,0,0,317.13,70a22.12,22.12,0,0,0-2.6,11A17.17,17.17,0,0,0,316,88.35a20.21,20.21,0,0,0,4,5.72,24.63,24.63,0,0,0,5.79,4.28,42.17,42.17,0,0,0,6.8,2.94,85.2,85.2,0,0,0,8.74,2.52,70.73,70.73,0,0,1,7.9,2.27,17.48,17.48,0,0,1,5.79,3.27,6.83,6.83,0,0,1,2.27,5.38,8.14,8.14,0,0,1-4.28,7.31,18,18,0,0,1-9.5,2.6q-12.09,0-23.35-8.73L312,127.67q13.44,10.92,31.92,10.91A37.3,37.3,0,0,0,355,136.91a29.94,29.94,0,0,0,9.41-4.79,23.53,23.53,0,0,0,6.46-7.65,20.87,20.87,0,0,0,2.44-10.08,18.6,18.6,0,0,0-2.77-10.33A25.08,25.08,0,0,0,363.59,96.92Zm55.1-60.81h-16V58H382.57V72.23h20.16v36.11a45.9,45.9,0,0,0,1.43,11.77,21.78,21.78,0,0,0,4.95,9.24,27,27,0,0,0,9.33,6.8,31.85,31.85,0,0,0,13,2.43,56.11,56.11,0,0,0,6.72-.41,28.52,28.52,0,0,0,5.71-1.26l-3.19-14.45a27,27,0,0,1-4.37.75c-1.68.17-3.14.26-4.37.26a18.06,18.06,0,0,1-6.21-1.1,10.56,10.56,0,0,1-4.71-3.11,9.08,9.08,0,0,1-1.93-4.36,35.07,35.07,0,0,1-.42-5.72V72.23h25.2V58h-25.2Zm111.38,45a45.59,45.59,0,0,1,2.86,16.29v1.35a15.06,15.06,0,0,1-.17,2H472a24.62,24.62,0,0,0,2.43,9.32,27.07,27.07,0,0,0,5.46,7.56,24.31,24.31,0,0,0,7.9,5.12,25.4,25.4,0,0,0,9.74,1.85q8.73,0,14-3.44a40.93,40.93,0,0,0,8.65-7.31l10.42,9.91q-4.37,5.71-12.77,10.25t-20.5,4.53a41.38,41.38,0,0,1-16-3.1,40.56,40.56,0,0,1-13-8.57,38.59,38.59,0,0,1-8.65-13,42.94,42.94,0,0,1-3.11-16.47A46.09,46.09,0,0,1,459.35,81a38.7,38.7,0,0,1,8-13,36.91,36.91,0,0,1,12.18-8.57A37.91,37.91,0,0,1,495,56.27a37,37,0,0,1,15.21,3.1,35.82,35.82,0,0,1,12,8.66A40.38,40.38,0,0,1,530.07,81.13ZM516.3,87.34a20.85,20.85,0,0,0-2.94-6.88A24,24,0,0,0,508.49,75a21.71,21.71,0,0,0-6.14-3.53,19.43,19.43,0,0,0-6.88-1.26,22.58,22.58,0,0,0-14,4.7,22.15,22.15,0,0,0-8.23,12.43Zm38.47,49.57h16V17.63h-16Zm44.52,0h16V17.63h-16ZM701.43,58h15.46v79H701.43v-7.23a33.85,33.85,0,0,1-11.08,6.64,38.51,38.51,0,0,1-13.28,2.26,39.9,39.9,0,0,1-10.58-1.42,38.33,38.33,0,0,1-9.24-3.78,41.43,41.43,0,0,1-14.62-14.7,40.85,40.85,0,0,1-5.54-21.26,40.66,40.66,0,0,1,5.63-21.33,41.72,41.72,0,0,1,14.7-14.78,37.29,37.29,0,0,1,8.9-3.7,38.88,38.88,0,0,1,10.42-1.34,40.9,40.9,0,0,1,13,2.1,34,34,0,0,1,11.67,6.8Zm-.5,24.69a29.68,29.68,0,0,0-9.49-8.06,26.54,26.54,0,0,0-13-3.19A25.29,25.29,0,0,0,668,73.49a23.71,23.71,0,0,0-8,5.71,27.14,27.14,0,0,0-7,18.22A26.19,26.19,0,0,0,655,107.5a24.92,24.92,0,0,0,5.46,8.24,27,27,0,0,0,8.32,5.63,26.2,26.2,0,0,0,22.34-.84,28,28,0,0,0,9.83-8.32Zm68-46.53H753V58H732.85V72.23H753v36.11a45.47,45.47,0,0,0,1.43,11.77,21.78,21.78,0,0,0,4.95,9.24,27,27,0,0,0,9.33,6.8,31.85,31.85,0,0,0,13,2.43,56.24,56.24,0,0,0,6.72-.41,28.52,28.52,0,0,0,5.71-1.26L791,122.46a27,27,0,0,1-4.37.75c-1.68.17-3.14.26-4.37.26a18.06,18.06,0,0,1-6.21-1.1,10.56,10.56,0,0,1-4.71-3.11,9.08,9.08,0,0,1-1.93-4.36,35.07,35.07,0,0,1-.42-5.72V72.23h25.2V58H769Zm47,100.8h16V58H816Zm7.89-117.6a9.92,9.92,0,0,0-7.39,3.1,10.38,10.38,0,0,0-3,7.48A10.33,10.33,0,0,0,823.9,40.31a10.32,10.32,0,0,0,7.48-3,9.92,9.92,0,0,0,3.11-7.39A10.6,10.6,0,0,0,823.9,19.31ZM932.35,81.13a44.48,44.48,0,0,1,0,32.68,40.56,40.56,0,0,1-8.57,13,38.9,38.9,0,0,1-12.94,8.65,43.93,43.93,0,0,1-32.42,0,38.86,38.86,0,0,1-12.93-8.65,40.4,40.4,0,0,1-8.57-13,44.48,44.48,0,0,1,0-32.68A40,40,0,0,1,865.49,68a38.88,38.88,0,0,1,12.93-8.66,43.93,43.93,0,0,1,32.42,0A38.92,38.92,0,0,1,923.78,68,40.17,40.17,0,0,1,932.35,81.13ZM919.5,97.42a28,28,0,0,0-1.85-10.16A25.64,25.64,0,0,0,912.53,79a23.65,23.65,0,0,0-7.82-5.55,26.28,26.28,0,0,0-20.16,0A23.6,23.6,0,0,0,876.74,79a25.64,25.64,0,0,0-5.12,8.31,28.85,28.85,0,0,0,0,20.33,25.8,25.8,0,0,0,5.12,8.32,23.58,23.58,0,0,0,7.81,5.54,26.16,26.16,0,0,0,20.16,0,23.62,23.62,0,0,0,7.82-5.54,25.8,25.8,0,0,0,5.12-8.32A28,28,0,0,0,919.5,97.42ZM285,70.21a37,37,0,0,0-12.52-10.16,35.44,35.44,0,0,0-16.21-3.78h-2.69a35.41,35.41,0,0,0-16.21,3.78,37,37,0,0,0-12.52,10.16A33.62,33.62,0,0,0,219,81.55a60.06,60.06,0,0,0-1.93,16.71v38.65h16V97.42a41,41,0,0,1,1.26-11.59,20.08,20.08,0,0,1,3.45-6.72,20.78,20.78,0,0,1,7.14-5.62,20.51,20.51,0,0,1,9.15-2.1h1.68a20.55,20.55,0,0,1,9.16,2.1A20.88,20.88,0,0,1,272,79.11a20.25,20.25,0,0,1,3.44,6.72,41,41,0,0,1,1.26,11.59v39.49h16V98.26q0-10.24-1.93-16.71A33.61,33.61,0,0,0,285,70.21Zm745,11.34a33.61,33.61,0,0,0-5.79-11.34,37,37,0,0,0-12.52-10.16,35.41,35.41,0,0,0-16.21-3.78h-2.69a35.41,35.41,0,0,0-16.21,3.78A37,37,0,0,0,964,70.21a33.61,33.61,0,0,0-5.79,11.34,59.65,59.65,0,0,0-1.94,16.71v38.65h16V97.42a41,41,0,0,1,1.26-11.59A20.08,20.08,0,0,1,977,79.11a20.78,20.78,0,0,1,7.14-5.62,20.51,20.51,0,0,1,9.15-2.1h1.68a20.55,20.55,0,0,1,9.16,2.1,20.78,20.78,0,0,1,7.14,5.62,20.26,20.26,0,0,1,3.45,6.72,41.43,41.43,0,0,1,1.25,11.59v39.49h16V98.26Q1031.89,88,1030,81.55Z"/></svg>